<svg width="25" height="24" viewBox="0 0 25 24" fill="none" xmlns="http://www.w3.org/2000/svg">
<path d="M12.3333 10C14.2663 10 15.8333 8.433 15.8333 6.5C15.8333 4.56701 14.2663 3 12.3333 3C10.4003 3 8.83325 4.56701 8.83325 6.5C8.83325 8.433 10.4003 10 12.3333 10Z" stroke="#F1EBD8" stroke-width="2" stroke-linecap="round" stroke-linejoin="round"/>
<path d="M3.33325 20.4V21H21.3333V20.4C21.3333 18.1598 21.3333 17.0397 20.8973 16.184C20.5138 15.4314 19.9019 14.8195 19.1492 14.436C18.2936 14 17.1735 14 14.9333 14H9.73325C7.49305 14 6.37295 14 5.5173 14.436C4.76464 14.8195 4.15272 15.4314 3.76923 16.184C3.33325 17.0397 3.33325 18.1598 3.33325 20.4Z" stroke="#F1EBD8" stroke-width="2" stroke-linecap="round" stroke-linejoin="round"/>
</svg>
